# xmcd
#
# Track frame offsets:
#	150
#	39118
#	126218
#	182114
#	249034
#	313110
#	387790
#	451590
#	521450
#	583942
#	643910
#	707430
#
# Disc length: 10613 seconds
#
# Revision: 1
# Processed by: cddbd v1.4PL0 Copyright (c) Steve Scherf et al.
# Submitted via: audiograbber 1.82.02
#
DISCID=b629730c
DTITLE=Steve Wariner  - Burnin' The Roadhouse Down
DYEAR=1998
DGENRE=Country
TTITLE0=Burnin' The Roadhouse Down
TTITLE1=Holes In The Floor Of Heaven
TTITLE2=Every Little Whisper
TTITLE3=A Six Pack Ago
TTITLE4=Road Trippin'
TTITLE5=Love Me Like You Love Me
TTITLE6=Smoke From An Old Flame
TTITLE7=I Don't Know How To Fix It
TTITLE8=Big Ol' Empty House
TTITLE9=Closer I Get To You
TTITLE10=Big Tops
TTITLE11=What If I Said
EXTD=
EXTT0=
EXTT1=
EXTT2=
EXTT3=
EXTT4=
EXTT5=
EXTT6=
EXTT7=
EXTT8=
EXTT9=
EXTT10=
EXTT11=
PLAYORDER=
